<svg id="Layer_1" data-name="Layer 1" xmlns="http://www.w3.org/2000/svg" viewBox="0 0 26.02 40"><defs><style>.cls-1{fill:#222;}</style></defs><title>ff_eyecon_rgb</title><path class="cls-1" d="M26,13A13,13,0,1,0,2,20a13,13,0,1,0,24,7,12.93,12.93,0,0,0-2-7A12.93,12.93,0,0,0,26,13ZM1.17,13a11.84,11.84,0,1,1,22.07,6A13,13,0,0,0,2.78,19,11.77,11.77,0,0,1,1.17,13Zm21.4,7A11.83,11.83,0,0,1,3.46,20a11.83,11.83,0,0,1,19.11,0Zm2.29,7A11.84,11.84,0,1,1,2.78,21a13,13,0,0,0,20.46,0A11.77,11.77,0,0,1,24.85,27Zm-8.74-7A3.11,3.11,0,1,1,13,16.89,3.11,3.11,0,0,1,16.12,20Z"/></svg>